<mxfile host="app.diagrams.net" agent="Mozilla/5.0 (Windows NT 10.0; Win64; x64; rv:130.0) Gecko/20100101 Firefox/130.0" scale="1" border="0" version="24.7.15">
  <diagram name="Page-1" id="YTA9PmVpi16rOcPj4em4">
    <mxGraphModel dx="989" dy="1639" grid="1" gridSize="10" guides="1" tooltips="1" connect="1" arrows="1" fold="1" page="1" pageScale="1" pageWidth="850" pageHeight="1100" math="0" shadow="0">
      <root>
        <mxCell id="0" />
        <mxCell id="1" parent="0" />
        <mxCell id="3pTon5SdB5cwGMIeFZMg-8" style="rounded=0;orthogonalLoop=1;jettySize=auto;html=1;dashed=1;startArrow=open;startFill=0;endArrow=none;endFill=0;" parent="1" source="3pTon5SdB5cwGMIeFZMg-1" target="3pTon5SdB5cwGMIeFZMg-2" edge="1">
          <mxGeometry relative="1" as="geometry" />
        </mxCell>
        <mxCell id="3pTon5SdB5cwGMIeFZMg-10" value="&amp;lt;&amp;lt;extends&amp;gt;&amp;gt;" style="edgeLabel;html=1;align=center;verticalAlign=middle;resizable=0;points=[];" parent="3pTon5SdB5cwGMIeFZMg-8" vertex="1" connectable="0">
          <mxGeometry x="-0.0429" y="-1" relative="1" as="geometry">
            <mxPoint as="offset" />
          </mxGeometry>
        </mxCell>
        <mxCell id="3pTon5SdB5cwGMIeFZMg-9" style="rounded=0;orthogonalLoop=1;jettySize=auto;html=1;dashed=1;startArrow=open;startFill=0;endArrow=none;endFill=0;" parent="1" source="3pTon5SdB5cwGMIeFZMg-1" target="3pTon5SdB5cwGMIeFZMg-3" edge="1">
          <mxGeometry relative="1" as="geometry" />
        </mxCell>
        <mxCell id="3pTon5SdB5cwGMIeFZMg-11" value="&amp;lt;&amp;lt;extends&amp;gt;&amp;gt;" style="edgeLabel;html=1;align=center;verticalAlign=middle;resizable=0;points=[];" parent="3pTon5SdB5cwGMIeFZMg-9" vertex="1" connectable="0">
          <mxGeometry x="0.0817" y="-3" relative="1" as="geometry">
            <mxPoint as="offset" />
          </mxGeometry>
        </mxCell>
        <mxCell id="3pTon5SdB5cwGMIeFZMg-14" style="rounded=0;orthogonalLoop=1;jettySize=auto;html=1;dashed=1;" parent="1" source="3pTon5SdB5cwGMIeFZMg-1" target="3pTon5SdB5cwGMIeFZMg-13" edge="1">
          <mxGeometry relative="1" as="geometry" />
        </mxCell>
        <mxCell id="3pTon5SdB5cwGMIeFZMg-15" value="&amp;lt;&amp;lt;include&amp;gt;&amp;gt;" style="edgeLabel;html=1;align=center;verticalAlign=middle;resizable=0;points=[];" parent="3pTon5SdB5cwGMIeFZMg-14" vertex="1" connectable="0">
          <mxGeometry x="0.3545" relative="1" as="geometry">
            <mxPoint as="offset" />
          </mxGeometry>
        </mxCell>
        <mxCell id="3pTon5SdB5cwGMIeFZMg-1" value="GÃ©rer une offre" style="ellipse;whiteSpace=wrap;html=1;fillColor=#dae8fc;strokeColor=#6c8ebf;" parent="1" vertex="1">
          <mxGeometry x="200" y="-1070" width="140" height="70" as="geometry" />
        </mxCell>
        <mxCell id="3pTon5SdB5cwGMIeFZMg-17" style="rounded=0;orthogonalLoop=1;jettySize=auto;html=1;endArrow=open;endFill=0;" parent="1" source="3pTon5SdB5cwGMIeFZMg-2" target="3pTon5SdB5cwGMIeFZMg-16" edge="1">
          <mxGeometry relative="1" as="geometry" />
        </mxCell>
        <mxCell id="3pTon5SdB5cwGMIeFZMg-2" value="Ajouter une offre" style="ellipse;whiteSpace=wrap;html=1;fillColor=#ffe6cc;strokeColor=#d79b00;" parent="1" vertex="1">
          <mxGeometry x="475" y="-960" width="140" height="70" as="geometry" />
        </mxCell>
        <mxCell id="3pTon5SdB5cwGMIeFZMg-3" value="Supprimer&amp;nbsp; une offre" style="ellipse;whiteSpace=wrap;html=1;fillColor=#ffe6cc;strokeColor=#d79b00;" parent="1" vertex="1">
          <mxGeometry x="320" y="-920" width="140" height="70" as="geometry" />
        </mxCell>
        <mxCell id="3pTon5SdB5cwGMIeFZMg-4" value="Admin" style="shape=umlActor;verticalLabelPosition=bottom;verticalAlign=top;html=1;outlineConnect=0;fillColor=#e1d5e7;strokeColor=#9673a6;" parent="1" vertex="1">
          <mxGeometry x="20" y="-1080" width="60" height="120" as="geometry" />
        </mxCell>
        <mxCell id="3pTon5SdB5cwGMIeFZMg-5" value="" style="endArrow=none;html=1;rounded=0;" parent="1" target="3pTon5SdB5cwGMIeFZMg-1" edge="1">
          <mxGeometry relative="1" as="geometry">
            <mxPoint x="90" y="-1030" as="sourcePoint" />
            <mxPoint x="180.94000000000005" y="-71.4399999999996" as="targetPoint" />
          </mxGeometry>
        </mxCell>
        <mxCell id="3pTon5SdB5cwGMIeFZMg-13" value="S&#39;authentifier" style="ellipse;whiteSpace=wrap;html=1;fillColor=#d5e8d4;strokeColor=#82b366;" parent="1" vertex="1">
          <mxGeometry x="590" y="-1070" width="140" height="70" as="geometry" />
        </mxCell>
        <mxCell id="3pTon5SdB5cwGMIeFZMg-16" value="Envoyer notification aux clients" style="ellipse;whiteSpace=wrap;html=1;fillColor=#ffe6cc;strokeColor=#d79b00;" parent="1" vertex="1">
          <mxGeometry x="580" y="-860" width="140" height="70" as="geometry" />
        </mxCell>
        <mxCell id="3pTon5SdB5cwGMIeFZMg-18" value="Consulter&amp;nbsp; une offre" style="ellipse;whiteSpace=wrap;html=1;fillColor=#ffe6cc;strokeColor=#d79b00;" parent="1" vertex="1">
          <mxGeometry x="160" y="-910" width="140" height="70" as="geometry" />
        </mxCell>
        <mxCell id="3pTon5SdB5cwGMIeFZMg-19" style="rounded=0;orthogonalLoop=1;jettySize=auto;html=1;dashed=1;startArrow=open;startFill=0;endArrow=none;endFill=0;entryX=0.543;entryY=0.014;entryDx=0;entryDy=0;entryPerimeter=0;" parent="1" source="3pTon5SdB5cwGMIeFZMg-1" target="3pTon5SdB5cwGMIeFZMg-18" edge="1">
          <mxGeometry relative="1" as="geometry">
            <mxPoint x="180" y="-995" as="sourcePoint" />
            <mxPoint x="248" y="-910" as="targetPoint" />
          </mxGeometry>
        </mxCell>
        <mxCell id="3pTon5SdB5cwGMIeFZMg-20" value="&amp;lt;&amp;lt;extends&amp;gt;&amp;gt;" style="edgeLabel;html=1;align=center;verticalAlign=middle;resizable=0;points=[];" parent="3pTon5SdB5cwGMIeFZMg-19" vertex="1" connectable="0">
          <mxGeometry x="0.0817" y="-3" relative="1" as="geometry">
            <mxPoint as="offset" />
          </mxGeometry>
        </mxCell>
        <mxCell id="3pTon5SdB5cwGMIeFZMg-21" style="rounded=0;orthogonalLoop=1;jettySize=auto;html=1;endArrow=open;endFill=0;entryX=0.021;entryY=0.39;entryDx=0;entryDy=0;entryPerimeter=0;" parent="1" source="3pTon5SdB5cwGMIeFZMg-3" target="3pTon5SdB5cwGMIeFZMg-16" edge="1">
          <mxGeometry relative="1" as="geometry">
            <mxPoint x="588" y="-884" as="sourcePoint" />
            <mxPoint x="627" y="-846" as="targetPoint" />
          </mxGeometry>
        </mxCell>
        <mxCell id="3pTon5SdB5cwGMIeFZMg-24" value="" style="swimlane;startSize=0;" parent="1" vertex="1">
          <mxGeometry x="100" y="-1090" width="640" height="310" as="geometry">
            <mxRectangle x="100" y="-1090" width="50" height="40" as="alternateBounds" />
          </mxGeometry>
        </mxCell>
      </root>
    </mxGraphModel>
  </diagram>
</mxfile>
